<svg width="117" height="29" viewBox="0 0 117 29" fill="none" xmlns="http://www.w3.org/2000/svg">
<path fill-rule="evenodd" clip-rule="evenodd" d="M1.64459 9.7077C2.35424 9.17495 3.09252 8.68252 3.85603 8.23268C4.04499 8.12276 4.23394 8.01285 4.42639 7.90648L4.49637 7.86747H4.55936L4.59435 7.84975C4.64334 7.82138 4.70632 7.78947 4.7763 7.75756C4.92709 7.68823 5.08125 7.62669 5.23819 7.57318C5.40614 7.51291 5.5881 7.46326 5.75606 7.41362C6.11807 7.31739 6.48482 7.24046 6.85478 7.18315C7.23269 7.11933 7.62109 7.07324 8.01999 7.03778C8.81429 6.96687 9.64709 6.9385 10.5254 6.92432C11.4036 6.91014 12.3274 6.90304 13.2967 6.87468C13.7796 6.87468 14.2764 6.83568 14.7838 6.80022L15.5501 6.7364C15.809 6.71158 16.068 6.67966 16.3374 6.64066C17.4033 6.48512 18.456 6.24806 19.4866 5.93152C20.5102 5.62848 21.518 5.27346 22.5064 4.86781C22.9928 4.6657 23.4721 4.45651 23.948 4.24022C22.9629 3.22808 21.8328 2.37222 20.5958 1.70149C19.896 2.05606 19.1962 2.41063 18.4964 2.70493C17.6864 3.05235 16.8511 3.33567 15.998 3.55235C15.7985 3.60199 15.5886 3.65163 15.3787 3.69418C15.1687 3.73673 14.9588 3.77573 14.7488 3.81119C14.3289 3.88565 13.909 3.94592 13.4926 3.99911C12.6598 4.10903 11.8375 4.18703 11.0432 4.27922C10.2489 4.37141 9.45813 4.4636 8.68832 4.59833C8.30692 4.66925 7.92552 4.74725 7.54761 4.84299C7.15982 4.93887 6.77778 5.05726 6.4034 5.19756C6.20744 5.26847 6.01149 5.35002 5.80855 5.44221L5.49712 5.59822C5.39215 5.65141 5.28018 5.71523 5.14721 5.78615C5.01673 5.8616 4.89056 5.94447 4.7693 6.03434C4.73431 6.05562 4.69932 6.08753 4.66083 6.11235L4.55586 6.15135L4.52437 6.17617L4.49987 6.19745L4.46488 6.22936L4.3984 6.29318L3.85603 6.81795C3.12355 7.52709 2.39806 8.24568 1.67958 8.97374C1.32966 9.35313 0.948259 9.73252 0.58435 10.119C0.528364 10.3034 0.479376 10.4736 0.433888 10.6757C0.832788 10.3353 1.23635 10.0126 1.64459 9.7077Z" fill="url(#paint0_linear_5_30)"/>
<path fill-rule="evenodd" clip-rule="evenodd" d="M3.42214 14.3029L4.01 14.3242H4.28643C4.35291 14.3242 4.43339 14.3242 4.51387 14.3242C4.86378 14.3242 5.2137 14.3703 5.6126 14.4164C6.3859 14.5086 7.2012 14.6504 8.04099 14.8135C8.88078 14.9766 9.74506 15.1681 10.6408 15.3596C11.5366 15.551 12.4569 15.7531 13.4051 15.9411C13.881 16.0332 14.3604 16.1254 14.8503 16.2105L15.5921 16.3346L15.963 16.3949L16.3479 16.4694C17.3767 16.6112 18.4194 16.6927 19.4796 16.7317C20.5399 16.7707 21.6106 16.7637 22.6953 16.7317C23.7801 16.6998 24.8823 16.6147 25.995 16.5155C26.6073 16.4623 27.2232 16.3984 27.839 16.3346C27.946 15.6188 27.9998 14.8958 28 14.1717C27.999 13.5791 27.9628 12.9871 27.8915 12.3989C27.1042 12.5336 26.3379 12.6648 25.5786 12.7818C24.5289 12.952 23.4791 13.1009 22.4539 13.2215C21.4286 13.342 20.4349 13.4307 19.4586 13.4768C18.4824 13.5229 17.5271 13.5442 16.6068 13.5051H15.907L15.2072 13.4626L13.8355 13.3527C12.9293 13.2711 12.0405 13.1789 11.1692 13.0938C10.2979 13.0088 9.44414 12.9237 8.60435 12.8634C7.76456 12.8031 6.94576 12.7641 6.11297 12.7747C5.69307 12.7747 5.27668 12.796 4.8113 12.8492C4.69233 12.8492 4.57336 12.8776 4.44039 12.9024H4.34591L4.27243 12.9237L4.12197 12.9627L3.52712 13.1258C2.73631 13.3385 1.96651 13.5548 1.21419 13.764L0 14.1186V14.2037C0 14.2888 0 14.3738 0 14.4589C0.370907 14.4199 0.752311 14.3916 1.13372 14.3738C1.88603 14.2888 2.64184 14.2817 3.42214 14.3029Z" fill="url(#paint1_linear_5_30)"/>
<path fill-rule="evenodd" clip-rule="evenodd" d="M3.82804 5.14792C4.003 4.98482 4.17796 4.82526 4.35991 4.66925L4.42639 4.60897L4.45439 4.58415L4.47888 4.56288L4.51037 4.53451L4.67133 4.40332L4.87428 4.26149L5.09473 4.11966C5.24869 4.02748 5.40965 3.93883 5.57411 3.85374C5.90303 3.68709 6.25294 3.53817 6.62385 3.39989C6.99475 3.2616 7.35166 3.14105 7.73307 3.04532C8.49238 2.81839 9.29368 2.62692 10.1335 2.439C10.9733 2.25108 11.855 2.08443 12.7613 1.87878C13.2127 1.7795 13.6746 1.68022 14.1365 1.5703C14.3709 1.51712 14.6053 1.46393 14.8363 1.40365L15.1862 1.31856L15.5361 1.22282C16.2744 1.02426 17.0092 0.790247 17.7336 0.513681C14.7135 -0.332567 11.5008 -0.128827 8.60844 1.09236C5.7161 2.31354 3.31108 4.48171 1.77755 7.25052C2.46338 6.48702 3.14688 5.78615 3.82804 5.14792Z" fill="url(#paint2_linear_5_30)"/>
<path fill-rule="evenodd" clip-rule="evenodd" d="M3.40465 22.2914L3.13521 22.0574L2.86228 21.8411L2.31642 21.4014C2.09597 21.2242 1.87903 21.0469 1.66208 20.8519C2.61109 22.6463 3.92953 24.2133 5.52812 25.4465C7.12672 26.6798 8.96816 27.5506 10.9278 28C8.70288 26.5169 6.55614 24.9168 4.49637 23.2062L3.40465 22.2914Z" fill="url(#paint3_linear_5_30)"/>
<path fill-rule="evenodd" clip-rule="evenodd" d="M2.57885 19.8271L3.12822 20.2314C3.21919 20.2952 3.31017 20.3661 3.40465 20.4299L3.68458 20.6107C4.05898 20.8519 4.43689 21.093 4.81829 21.3199C7.94722 23.2708 11.1872 25.0325 14.5214 26.5959C15.4918 27.0497 16.4727 27.4859 17.4641 27.9043C19.1099 27.4761 20.6646 26.7467 22.0515 25.752C19.7047 25.1422 17.4303 24.4744 15.2282 23.7487C11.7813 22.6169 8.39427 21.3056 5.08073 19.8201C4.68883 19.6428 4.30042 19.4655 3.91552 19.2847L3.62509 19.1499L3.33816 19.0365C3.14221 18.962 2.95326 18.884 2.76081 18.8024C1.998 18.4904 1.25269 18.1548 0.524868 17.7955L0.458383 17.76C0.514369 17.9834 0.577353 18.1997 0.643836 18.416C1.28301 18.8769 1.92801 19.3473 2.57885 19.8271Z" fill="url(#paint4_linear_5_30)"/>
<path fill-rule="evenodd" clip-rule="evenodd" d="M0.790797 16.4268C1.51862 16.6608 2.26393 16.9197 3.02324 17.1962L3.5971 17.4054L3.88403 17.5118L5.34666 17.9515C6.94226 18.4372 8.61135 18.9478 10.3434 19.4655C11.2112 19.7208 12.093 19.9832 12.9957 20.242L14.3534 20.632L15.4031 20.9192L15.7531 21.0114C16.2324 21.1249 16.7048 21.2348 17.1842 21.3412L18.6293 21.6567C19.5974 21.8624 20.583 22.0621 21.5861 22.256C22.7093 22.4722 23.85 22.685 25.0082 22.8835C25.8569 21.7839 26.5397 20.5627 27.0342 19.2598C25.3617 19.1038 23.7287 18.9407 22.1355 18.7705C21.0857 18.6606 20.085 18.5471 19.0842 18.416L17.6006 18.2387C17.1142 18.1819 16.6278 18.1217 16.159 18.0578L15.809 18.0117L15.4591 17.9586L14.7593 17.8451L10.7003 17.1785C8.92626 16.8842 7.22569 16.6041 5.5916 16.3559L4.3739 16.1786L4.06598 16.1361C3.968 16.1361 3.86653 16.1361 3.76855 16.1183L3.1772 16.0829C2.3934 16.0332 1.62826 15.9718 0.881775 15.8985L0.101469 15.817L0.153956 16.2247C0.356906 16.2885 0.57735 16.3559 0.790797 16.4268Z" fill="url(#paint5_linear_5_30)"/>
<path fill-rule="evenodd" clip-rule="evenodd" d="M1.42764 12.133C2.17086 11.8416 2.92892 11.5907 3.69857 11.3813L4.28643 11.2288L4.43339 11.1933H4.51387L4.71682 11.1402C4.87078 11.1083 5.03874 11.0799 5.21719 11.0551C5.39565 11.0302 5.5671 11.0125 5.76305 10.9983C6.14096 10.9664 6.52936 10.9558 6.92476 10.9522C7.32016 10.9487 7.73306 10.9522 8.14246 10.9806C8.97525 11.0196 9.83954 11.0905 10.7353 11.1721C11.6311 11.2536 12.5654 11.3494 13.5346 11.4274C14.021 11.4699 14.5109 11.5054 15.0112 11.5373C15.2597 11.5373 15.5116 11.5692 15.7671 11.5798H16.5439C17.6199 11.5995 18.6962 11.5521 19.7666 11.438C20.8478 11.3245 21.929 11.1473 23.0137 10.9274C24.0985 10.7076 25.2007 10.4417 26.2504 10.1509L27.3282 9.84953C26.9272 8.57959 26.3524 7.37293 25.6206 6.26482L25.0047 6.49529C24.0425 6.84986 23.0872 7.16897 22.139 7.45263C21.1907 7.73629 20.2424 7.97385 19.3117 8.16177C18.409 8.34407 17.4965 8.47194 16.5789 8.54471L16.2464 8.56598H15.8965C15.6691 8.56598 15.4416 8.58726 15.2142 8.59789C14.7628 8.59789 14.3149 8.62626 13.8705 8.63335C12.9818 8.63335 12.121 8.63335 11.2637 8.66172C10.4064 8.69008 9.5876 8.69008 8.7723 8.73972C8.36291 8.76454 7.9605 8.79645 7.5616 8.84255C7.1627 8.88864 6.75681 8.94892 6.34741 9.02692C6.14096 9.06947 5.93451 9.11557 5.72107 9.16875C5.50762 9.22194 5.29067 9.29285 5.04923 9.37795C4.93026 9.4205 4.80429 9.47014 4.66783 9.53041L4.61534 9.55523L4.55936 9.58005L4.50687 9.60487L4.46838 9.62615L4.32142 9.71124L3.74056 10.0658C2.96725 10.5268 2.20794 10.9912 1.46613 11.4664C0.999578 11.7595 0.543526 12.0561 0.0979709 12.3563L0.0559804 12.7109C0.521364 12.5088 0.969252 12.3138 1.42764 12.133Z" fill="url(#paint6_linear_5_30)"/>
<path d="M42.5707 6.42289V21.1806H38.1494V6.42289H42.5707ZM42.6902 2.1808C42.6902 3.4355 41.6745 4.42134 40.3302 4.42134C39.0456 4.42134 38 3.4355 38 2.1808C38 0.955966 39.0456 0 40.3302 0C41.6745 0 42.6902 0.955966 42.6902 2.1808ZM55.0695 6.42289H59.4909V20.7325C59.4909 25.0941 56.2944 28.6192 51.6938 28.6192C49.1545 28.6192 47.2426 27.4541 45.5696 25.602L48.7064 22.7639C49.6325 24.1381 50.4689 24.9746 51.6938 24.9746C53.785 24.9746 55.0397 22.6743 55.0397 20.1649C54.5019 20.8819 52.9186 21.3897 51.9925 21.3897C47.6907 21.3897 44.524 18.1633 44.524 13.8018C44.524 9.44016 47.6907 6.1839 51.9925 6.1839C53.0082 6.1839 54.5915 6.72163 55.0695 7.40873V6.42289ZM52.2913 18.0737C54.2928 18.0737 55.667 15.7734 55.667 13.8018C55.667 11.8002 54.3227 9.52978 52.2913 9.52978C50.4689 9.52978 48.9454 11.4417 48.9454 13.8018C48.9454 16.1319 50.4689 18.0737 52.2913 18.0737ZM69.0023 9.85839C67.18 9.85839 65.6564 11.4716 65.6564 13.8316C65.6564 16.1618 67.18 17.775 69.0023 17.775C70.8545 17.775 72.3781 16.1618 72.3781 13.8316C72.3781 11.4716 70.8545 9.85839 69.0023 9.85839ZM69.0023 6.21378C73.334 6.21378 76.7994 9.47003 76.7994 13.8316C76.7994 18.1932 73.334 21.4196 69.0023 21.4196C64.7004 21.4196 61.2351 18.1932 61.2351 13.8316C61.2351 9.47003 64.7004 6.21378 69.0023 6.21378ZM83.8014 14.9071C83.8014 15.9825 83.7715 17.775 85.4146 17.775C86.2212 17.775 86.7291 17.4464 87.2967 17.0281V20.6728C86.6096 21.0611 85.7731 21.4196 84.8769 21.4196C81.0829 21.4196 79.3801 19.8064 79.3801 14.9071V10.0675H77.737V6.42289H79.3801V2.1808H83.8014V6.42289H87.2967V10.0675H83.8014V14.9071ZM95.165 18.7608C95.165 20.2844 93.9103 21.4495 92.327 21.4495C90.7437 21.4495 89.5188 20.2844 89.5188 18.7608C89.5188 17.3269 90.7437 16.1319 92.327 16.1319C93.9103 16.1319 95.165 17.3269 95.165 18.7608ZM100.195 10.7845L96.9092 8.90243C98.5523 7.05025 100.763 6.1839 103.063 6.1839C107.485 6.1839 109.277 8.60369 109.277 10.8741V21.1806H104.856V20.135C104.169 20.852 102.944 21.3897 101.57 21.3897C97.5366 21.3897 95.9831 19.5973 95.9831 16.8489C95.9831 13.742 98.4925 11.6508 102.555 11.6508H104.856C104.856 10.5455 104.019 9.82852 102.765 9.82852C101.48 9.82852 100.853 10.0675 100.195 10.7845ZM104.856 16.3112V14.9967H102.257C101.092 14.9967 100.225 15.8033 100.404 16.9385C100.524 17.7451 101.241 18.0737 102.257 18.0737C104.198 18.0737 104.856 16.9684 104.856 16.3112ZM116.249 6.42289V21.1806H111.828V6.42289H116.249ZM116.369 2.1808C116.369 3.4355 115.353 4.42134 114.009 4.42134C112.724 4.42134 111.678 3.4355 111.678 2.1808C111.678 0.955966 112.724 0 114.009 0C115.353 0 116.369 0.955966 116.369 2.1808Z" fill="white"/>
<defs>
<linearGradient id="paint0_linear_5_30" x1="1.67748e-07" y1="5.45454" x2="29.7436" y2="11.7117" gradientUnits="userSpaceOnUse">
<stop stop-color="#30BE93"/>
<stop offset="0.354556" stop-color="#2AA4AE"/>
<stop offset="0.680339" stop-color="#2295D5"/>
<stop offset="1" stop-color="#1E6FE7"/>
</linearGradient>
<linearGradient id="paint1_linear_5_30" x1="1.67748e-07" y1="5.45454" x2="29.7436" y2="11.7117" gradientUnits="userSpaceOnUse">
<stop stop-color="#30BE93"/>
<stop offset="0.354556" stop-color="#2AA4AE"/>
<stop offset="0.680339" stop-color="#2295D5"/>
<stop offset="1" stop-color="#1E6FE7"/>
</linearGradient>
<linearGradient id="paint2_linear_5_30" x1="1.67748e-07" y1="5.45454" x2="29.7436" y2="11.7117" gradientUnits="userSpaceOnUse">
<stop stop-color="#30BE93"/>
<stop offset="0.354556" stop-color="#2AA4AE"/>
<stop offset="0.680339" stop-color="#2295D5"/>
<stop offset="1" stop-color="#1E6FE7"/>
</linearGradient>
<linearGradient id="paint3_linear_5_30" x1="1.67748e-07" y1="5.45454" x2="29.7436" y2="11.7117" gradientUnits="userSpaceOnUse">
<stop stop-color="#30BE93"/>
<stop offset="0.354556" stop-color="#2AA4AE"/>
<stop offset="0.680339" stop-color="#2295D5"/>
<stop offset="1" stop-color="#1E6FE7"/>
</linearGradient>
<linearGradient id="paint4_linear_5_30" x1="1.67748e-07" y1="5.45454" x2="29.7436" y2="11.7117" gradientUnits="userSpaceOnUse">
<stop stop-color="#30BE93"/>
<stop offset="0.354556" stop-color="#2AA4AE"/>
<stop offset="0.680339" stop-color="#2295D5"/>
<stop offset="1" stop-color="#1E6FE7"/>
</linearGradient>
<linearGradient id="paint5_linear_5_30" x1="1.67748e-07" y1="5.45454" x2="29.7436" y2="11.7117" gradientUnits="userSpaceOnUse">
<stop stop-color="#30BE93"/>
<stop offset="0.354556" stop-color="#2AA4AE"/>
<stop offset="0.680339" stop-color="#2295D5"/>
<stop offset="1" stop-color="#1E6FE7"/>
</linearGradient>
<linearGradient id="paint6_linear_5_30" x1="1.67748e-07" y1="5.45454" x2="29.7436" y2="11.7117" gradientUnits="userSpaceOnUse">
<stop stop-color="#30BE93"/>
<stop offset="0.354556" stop-color="#2AA4AE"/>
<stop offset="0.680339" stop-color="#2295D5"/>
<stop offset="1" stop-color="#1E6FE7"/>
</linearGradient>
</defs>
</svg>
